<svg xmlns="http://www.w3.org/2000/svg" width="32" height="39.333" viewBox="0 0 32 39.333">
  <g id="_Group_2" transform="translate(-2.237)">
    <g id="_Group_3" transform="translate(2.237)">
      <path id="_Path_" d="M28.965,18.634a10.356,10.356,0,0,1,4.256-8.429,8.931,8.931,0,0,0-7.209-4.38c-3.033-.357-5.974,2.039-7.519,2.039-1.575,0-3.955-2-6.518-1.945A9.531,9.531,0,0,0,3.9,11.458C.4,18.255,3.007,28.245,6.354,33.74c1.675,2.691,3.63,5.7,6.192,5.59,2.506-.116,3.442-1.8,6.465-1.8,3,0,3.874,1.8,6.487,1.728,2.688-.05,4.382-2.7,6-5.419a23.454,23.454,0,0,0,2.742-6.277A9.8,9.8,0,0,1,28.965,18.634Z" transform="translate(-2.237)" fill="#5221e6"/>
      <path id="_Path_2" d="M15.535,3.847A5.371,5.371,0,0,0,16.763,0a5.468,5.468,0,0,0-3.535,1.829,5.111,5.111,0,0,0-1.261,3.7A4.521,4.521,0,0,0,15.535,3.847Z" transform="translate(6.009)" fill="#5221e6"/>
    </g>
  </g>
</svg>
