<svg xmlns="http://www.w3.org/2000/svg" width="32" height="31.2" viewBox="0 0 32 31.2">
  <g id="after-effects" transform="translate(0 -0.3)">
    <path id="Path_6151" data-name="Path 6151" d="M7.757,8.144l1.289,4.17H6.5Z" transform="translate(2.424 3.182)" fill="#5221e6"/>
    <path id="Path_6152" data-name="Path 6152" d="M26.333.3H5.667A5.667,5.667,0,0,0,0,5.967V25.833A5.667,5.667,0,0,0,5.667,31.5H26.333A5.667,5.667,0,0,0,32,25.833V5.967A5.667,5.667,0,0,0,26.333.3Zm-9.377,22H14.165a.2.2,0,0,1-.215-.151l-1.1-3.183H7.9l-1.009,3.14a.252.252,0,0,1-.257.193H4.119c-.144,0-.193-.079-.151-.236L8.261,9.751c.043-.129.087-.255.129-.419a4.655,4.655,0,0,0,.085-.871.133.133,0,0,1,.112-.151.175.175,0,0,1,.037,0h3.413c.1,0,.157.036.171.108l4.873,13.667C17.127,22.228,17.084,22.3,16.956,22.3ZM27.42,16.985c-.021.257-.04.444-.053.559a.194.194,0,0,1-.193.172q-.128,0-.44.032t-.773.043c-.308.008-.633-.045-.976-.045H20.755a3.014,3.014,0,0,0,.408,1.183,2.205,2.205,0,0,0,.976.805,4.08,4.08,0,0,0,1.707.335,7.811,7.811,0,0,0,1.385-.152,5.184,5.184,0,0,0,1.191-.309c.071-.057.108-.021.108.107v2.04a.322.322,0,0,1-.032.161.3.3,0,0,1-.1.1,5.461,5.461,0,0,1-1.331.4,9.444,9.444,0,0,1-1.889.161,5.285,5.285,0,0,1-4.229-1.739,5.872,5.872,0,0,1-1.2-3.692A6.191,6.191,0,0,1,19.08,13.2a4.755,4.755,0,0,1,3.843-1.684A4.407,4.407,0,0,1,26.4,12.985a5.077,5.077,0,0,1,1.052,3.145C27.453,16.441,27.441,16.727,27.42,16.985Zm-4.6-3.156a1.863,1.863,0,0,0-1.771,1.008,3.045,3.045,0,0,0-.289.951h2.812c.344,0,.6,0,.763-.011a.758.758,0,0,0,.311-.1v-.129a1.718,1.718,0,0,0-.085-.493A1.755,1.755,0,0,0,22.816,13.829Z" transform="translate(0 0)" fill="#5221e6"/>
  </g>
</svg>
