<svg xmlns="http://www.w3.org/2000/svg" width="34.909" height="32" viewBox="0 0 34.909 32">
  <path id="browser_1_" data-name="browser (1)" d="M27.636,1H7.273A7.281,7.281,0,0,0,0,8.273V25.727A7.281,7.281,0,0,0,7.273,33H27.636a7.281,7.281,0,0,0,7.273-7.273V8.273A7.281,7.281,0,0,0,27.636,1ZM7.273,3.909H27.636A4.364,4.364,0,0,1,32,8.273V9.727H2.909V8.273A4.364,4.364,0,0,1,7.273,3.909ZM27.636,30.091H7.273a4.364,4.364,0,0,1-4.364-4.364V12.636H32V25.727A4.364,4.364,0,0,1,27.636,30.091Zm0-11.636a1.455,1.455,0,0,1-1.455,1.455H8.727a1.455,1.455,0,0,1,0-2.909H26.182A1.455,1.455,0,0,1,27.636,18.455Zm-5.818,5.818a1.455,1.455,0,0,1-1.455,1.455H8.727a1.455,1.455,0,1,1,0-2.909H20.364A1.455,1.455,0,0,1,21.818,24.273ZM4.364,6.818A1.455,1.455,0,1,1,5.818,8.273,1.455,1.455,0,0,1,4.364,6.818Zm4.364,0a1.455,1.455,0,1,1,1.455,1.455A1.455,1.455,0,0,1,8.727,6.818Zm4.364,0a1.455,1.455,0,1,1,1.455,1.455A1.455,1.455,0,0,1,13.091,6.818Z" transform="translate(0 -1)" fill="#5221e6"/>
</svg>
