<svg xmlns="http://www.w3.org/2000/svg" width="32" height="46.027" viewBox="0 0 32 46.027">
  <g id="Group" transform="translate(-3.657)">
    <g id="Rectangle_55_x5F_2" transform="translate(3.657)">
      <path id="Path_6153" data-name="Path 6153" d="M31.762,15.812A8.609,8.609,0,0,0,27.044,0H12.27A8.609,8.609,0,0,0,7.552,15.812a8.6,8.6,0,0,0,0,14.4,8.609,8.609,0,0,0,4.764,15.812,8.739,8.739,0,0,0,8.753-8.7V29.38a8.572,8.572,0,0,0,5.79,2.244h.186a8.609,8.609,0,0,0,4.718-15.812ZM21.067,2.821h5.978a5.791,5.791,0,1,1,0,11.581H21.067V2.821ZM6.478,8.611a5.8,5.8,0,0,1,5.792-5.79h5.978V14.4H12.27A5.8,5.8,0,0,1,6.478,8.611Zm0,14.4a5.8,5.8,0,0,1,5.792-5.79h5.978V28.8H12.233A5.8,5.8,0,0,1,6.478,23.013ZM18.247,37.322a5.915,5.915,0,0,1-5.932,5.884,5.791,5.791,0,1,1-.046-11.581h5.978v5.7Zm8.8-8.517h-.186a5.791,5.791,0,0,1,0-11.581h.186a5.791,5.791,0,1,1,0,11.581Z" transform="translate(-3.657)" fill="#5221e6"/>
    </g>
    <g id="Rectangle_55_x5F_4" transform="translate(13.183 28.803)">
      <path id="Path_6154" data-name="Path 6154" d="M8.148,15.019h0Z" transform="translate(-8.129 -15.019)" fill="#5221e6"/>
    </g>
  </g>
</svg>
