<svg id="Group_524" data-name="Group 524" xmlns="http://www.w3.org/2000/svg" xmlns:xlink="http://www.w3.org/1999/xlink" width="32" height="32.486" viewBox="0 0 32 32.486">
  <defs>
    <clipPath id="clip-path">
      <rect id="Rectangle_1230" data-name="Rectangle 1230" width="32" height="32.486" fill="#5221e6"/>
    </clipPath>
  </defs>
  <g id="Group_523" data-name="Group 523" clip-path="url(#clip-path)">
    <path id="Path_6159" data-name="Path 6159" d="M30.3,10.774a9.822,9.822,0,0,1-.29,2.285c-.069.258.082.4.182.57.132.218.341.389.474.607a7.779,7.779,0,0,1,1.129,2.54,9.607,9.607,0,0,1,.06,3.6,11.162,11.162,0,0,1-.8,2.255,6.63,6.63,0,0,1-.994,1.506A6.7,6.7,0,0,1,28.826,25.3a8.5,8.5,0,0,1-2.563,1.32,1.372,1.372,0,0,0-1.036.891,7.381,7.381,0,0,1-2.753,3.449,8.3,8.3,0,0,1-4.341,1.511,8.093,8.093,0,0,1-3.983-.785,7.518,7.518,0,0,1-2.339-1.7.519.519,0,0,0-.55-.164,8.186,8.186,0,0,1-4.115-.365,7.835,7.835,0,0,1-2.375-1.317,7.2,7.2,0,0,1-2.08-2.533c-.139-.3-.327-.573-.442-.877a7.992,7.992,0,0,1-.339-4.751,1.692,1.692,0,0,0-.374-1.537,6.675,6.675,0,0,1-1.308-2.82,8.948,8.948,0,0,1-.192-2.687A8.246,8.246,0,0,1,.969,9.812a10.811,10.811,0,0,1,1.01-1.493A6.763,6.763,0,0,1,3.3,7.1,9.571,9.571,0,0,1,6.286,5.685a.388.388,0,0,0,.3-.276A7.972,7.972,0,0,1,8.374,2.515,7.693,7.693,0,0,1,11.061.658,8.269,8.269,0,0,1,20.135,2.43a.691.691,0,0,0,.7.211,8.17,8.17,0,0,1,3.711.276,8.624,8.624,0,0,1,2.709,1.429,7.591,7.591,0,0,1,1.973,2.279A7.726,7.726,0,0,1,30.3,10.774m-22.094.948c0,1.269,0,2.538,0,3.808a.367.367,0,0,0,.2.349c.7.5,1.524.812,2.225,1.321.1.071.213.208.337.139s.053-.238.053-.358q.006-4.09,0-8.179c0-.2,0-.4.011-.6a.916.916,0,0,1,.438-.8,11.258,11.258,0,0,0,1.058-.611c.836-.463,1.664-.939,2.491-1.417a8.452,8.452,0,0,1,.8-.5c.738-.32,1.36-.845,2.1-1.161.3-.127.252-.26.012-.393a6.592,6.592,0,0,0-2.655-1.08,9.117,9.117,0,0,0-2.583.1,5.463,5.463,0,0,0-1.941.937A5.471,5.471,0,0,0,9.143,5,6.34,6.34,0,0,0,8.21,8.266c-.01,1.152,0,2.3,0,3.455m15.58,9.025c0-1.258,0-2.515,0-3.773,0-.115.034-.224-.118-.328-.761-.52-1.61-.89-2.369-1.411-.266-.183-.313-.09-.312.19.006,1.951,0,3.9,0,5.853,0,.94,0,1.881,0,2.821a1.026,1.026,0,0,1-.41.953c-.336.185-.657.394-.991.582q-1.263.712-2.518,1.437a8.806,8.806,0,0,1-.866.53c-.74.319-1.364.84-2.1,1.164-.292.129-.237.284-.009.421.2.119.424.2.613.332a3.978,3.978,0,0,0,1.364.616,6.867,6.867,0,0,0,3.064.048,5.725,5.725,0,0,0,3.207-1.993A5.172,5.172,0,0,0,23.414,26.3a8,8,0,0,0,.376-2.238c-.008-1.1,0-2.21,0-3.315m2.108-.236q0,1.269,0,2.538,0,.6,0,1.2c0,.09-.017.206.144.15a2.871,2.871,0,0,0,.558-.19,6.66,6.66,0,0,0,2.79-3.057,6.081,6.081,0,0,0-1.278-6.662,7.9,7.9,0,0,0-1.935-1.341c-.951-.516-1.889-1.064-2.819-1.616-.879-.522-1.792-.992-2.64-1.57a.7.7,0,0,0-.8-.045c-.721.428-1.44.858-2.169,1.272-.292.165-.155.244.039.324a17.862,17.862,0,0,1,1.967,1.106c.7.4,1.4.779,2.083,1.208.9.569,1.847,1.078,2.78,1.6a7.278,7.278,0,0,0,.784.449c.439.18.489.618.491,1.038,0,1.2,0,2.4,0,3.6M6.1,8.063a2.826,2.826,0,0,0-.657.189A6.855,6.855,0,0,0,3.933,9.366,7.151,7.151,0,0,0,2.6,11.383a6.067,6.067,0,0,0,1.337,6.646A7.807,7.807,0,0,0,5.785,19.3c.982.535,1.947,1.106,2.91,1.674.811.478,1.665.892,2.43,1.443a.924.924,0,0,0,1.219,0,5.074,5.074,0,0,1,1.078-.651c.391-.152.673-.441,1.064-.61a2.469,2.469,0,0,0-.552-.3c-1.082-.682-2.216-1.274-3.312-1.929-1.04-.622-2.1-1.2-3.14-1.828a2.7,2.7,0,0,0-.624-.382c-.662-.173-.746-.684-.749-1.221-.013-2.163-.005-4.326,0-6.489V8.063M19.512,21.641h0c0-.435,0-.869,0-1.3,0-.338-.034-.354-.333-.174-.281.169-.569.328-.834.519-.331.238-.722.356-1.058.593a24.484,24.484,0,0,1-2.149,1.257c-.665.374-1.319.77-1.989,1.135-.552.3-1.1.623-1.649.926a.815.815,0,0,1-.839-.007c-.25-.148-.523-.252-.765-.4-.495-.3-.988-.608-1.5-.881-.391-.208-.746-.487-1.143-.682-.689-.339-1.3-.805-1.991-1.139-.387-.188-.728-.453-1.121-.638-.288-.135-.277.043-.292.19a6.19,6.19,0,0,0,1.591,4.837,6.3,6.3,0,0,0,1.912,1.376,5.5,5.5,0,0,0,2.585.522,5.134,5.134,0,0,0,2.7-.621c.518-.31,1.049-.6,1.575-.893.722-.4,1.435-.826,2.157-1.229.963-.538,1.9-1.131,2.871-1.655a.444.444,0,0,0,.283-.464c-.02-.422-.006-.846-.006-1.269M12.5,10.842h0c0,.435.011.87,0,1.3-.01.289.088.339.316.189.486-.32,1.005-.585,1.5-.893.751-.473,1.534-.893,2.3-1.334.662-.381,1.312-.79,2-1.14.591-.3,1.148-.678,1.737-.993A.986.986,0,0,1,21.37,7.91c.29.174.609.288.892.468.875.557,1.8,1.023,2.688,1.559.715.433,1.458.819,2.163,1.272a5.267,5.267,0,0,0,.756.428c.263.113.273-.006.291-.192a5.422,5.422,0,0,0-.116-1.954,6.513,6.513,0,0,0-1.078-2.376A5.789,5.789,0,0,0,25.54,5.748a5.377,5.377,0,0,0-2.618-.987,10.554,10.554,0,0,0-2.308.1,6.639,6.639,0,0,0-2.029.908c-.971.534-1.923,1.1-2.885,1.653-1,.572-1.977,1.177-2.989,1.725a.373.373,0,0,0-.217.392c.01.435,0,.87,0,1.3m0,5.407c0,.6,0,1.2,0,1.8,0,.124-.017.23.143.315.7.371,1.391.748,2.06,1.166.388.242.788.457,1.184.68a.2.2,0,0,0,.226,0c.7-.4,1.4-.794,2.091-1.2.364-.211.706-.466,1.087-.638.163-.074.219-.136.22-.289q0-1.851,0-3.7a.247.247,0,0,0-.13-.26c-.662-.358-1.335-.7-1.969-1.106-.416-.265-.851-.489-1.276-.736a.242.242,0,0,0-.257,0c-.714.322-1.334.806-2.03,1.158-.374.189-.7.479-1.086.638a.352.352,0,0,0-.267.4c.008.588,0,1.175,0,1.763" transform="translate(0 -0.001)" fill="#5221e6"/>
  </g>
</svg>
