<svg id="Group_526" data-name="Group 526" xmlns="http://www.w3.org/2000/svg" xmlns:xlink="http://www.w3.org/1999/xlink" width="32" height="26.661" viewBox="0 0 32 26.661">
  <defs>
    <clipPath id="clip-path">
      <rect id="Rectangle_1231" data-name="Rectangle 1231" width="32" height="26.661" fill="#5221e6"/>
    </clipPath>
  </defs>
  <g id="Group_525" data-name="Group 525" clip-path="url(#clip-path)">
    <path id="Path_6160" data-name="Path 6160" d="M22.813,280.888a1.773,1.773,0,0,0,2.045-.026c.441-.3.844-.654,1.273-.971a2.64,2.64,0,0,1,3.336.025c.347.265.67.561,1.006.84a1.855,1.855,0,0,0,1.077.482A.42.42,0,0,1,32,281.7c-.019.3-.223.434-.529.424a2.77,2.77,0,0,1-1.688-.77c-.233-.195-.456-.4-.687-.6a1.834,1.834,0,0,0-2.548-.056c-.354.276-.694.571-1.06.831a2.68,2.68,0,0,1-3.4-.062c-.4-.3-.765-.64-1.177-.915a1.725,1.725,0,0,0-2.19.1c-.364.283-.71.591-1.083.86a2.6,2.6,0,0,1-3.214.011c-.366-.259-.7-.558-1.056-.836a1.6,1.6,0,0,0-2.165-.1c-.393.263-.755.571-1.142.843a2.928,2.928,0,0,1-3.474.078c-.6-.37-1.123-.848-1.685-1.271a.922.922,0,0,0-1.14-.05c-.546.32-1.053.7-1.577,1.048a7.747,7.747,0,0,1-.967.579,1.754,1.754,0,0,1-.59.176c-.29.028-.546-.011-.612-.358-.056-.294.1-.46.492-.533a2.366,2.366,0,0,0,.848-.406c.517-.34,1.022-.7,1.541-1.036.154-.1.187-.173.089-.344-.241-.421-.459-.855-.678-1.288-.208-.41-.069-.7.388-.739,1.307-.1,2.616-.18,3.925-.265q3.817-.248,7.635-.493c1.66-.106,3.321-.208,4.981-.315q3.726-.242,7.451-.488c.945-.061,1.891-.113,2.836-.175.263-.017.5.02.6.3s-.067.427-.258.583a33.292,33.292,0,0,1-6.682,4.249c-.106.051-.207.114-.366.2m5.275-4.337q-4.395.279-8.789.558c-2.459.159-4.917.327-7.376.486q-4.106.266-8.213.52c-.221.014-.334.059-.187.3.107.175.193.364.289.546.053.1.112.191.251.157a1.763,1.763,0,0,1,1.5.493c.46.337.888.719,1.357,1.04a2.094,2.094,0,0,0,2.778-.065c.351-.26.689-.539,1.054-.779a2.419,2.419,0,0,1,3.067.1c.358.271.694.57,1.053.84a1.738,1.738,0,0,0,2.251.025c.353-.256.677-.552,1.026-.815a2.617,2.617,0,0,1,3.446-.02.731.731,0,0,0,.882.08,37.064,37.064,0,0,0,3.946-2.183,9.209,9.209,0,0,0,1.666-1.289" transform="translate(-0.001 -255.466)" fill="#5221e6"/>
    <path id="Path_6161" data-name="Path 6161" d="M67.613,18.178a14.978,14.978,0,0,0-7.767,2.291.642.642,0,0,1-.508.139.452.452,0,0,1-.166-.781,10.213,10.213,0,0,0,1.755-2.75,16.106,16.106,0,0,0,1.265-5.053c.355-3.478-.7-6.637-2.151-9.708-.249-.526-.531-1.036-.809-1.548a.486.486,0,0,1,0-.606.481.481,0,0,1,.626-.087A28.533,28.533,0,0,1,73.949,14.2a18.81,18.81,0,0,1,1.471,4.74c.037.229.09.463-.116.646-.225.2-.453.087-.681,0a19.562,19.562,0,0,0-7.01-1.4m-6.468.5a.538.538,0,0,0,.375-.1,15.351,15.351,0,0,1,6.26-1.3,20.35,20.35,0,0,1,6.31,1.14c.092.031.2.147.3.037.069-.079-.011-.185-.031-.275a18.161,18.161,0,0,0-1.2-3.58A27.264,27.264,0,0,0,61.023,1.668c-.085-.047-.167-.153-.3-.059A20.867,20.867,0,0,1,63.145,10.1a16.576,16.576,0,0,1-2,8.576" transform="translate(-54.714 0)" fill="#5221e6"/>
    <path id="Path_6162" data-name="Path 6162" d="M177.16,44.628a4.627,4.627,0,0,1,1.61.542,19.516,19.516,0,0,1,4.224,3.142,26.243,26.243,0,0,1,6.114,8.173c.573,1.205,1.112,2.424,1.572,3.678.086.233.162.472-.059.675s-.444.1-.677,0a5.114,5.114,0,0,0-2.406-.608c-.253.024-.506.055-.756.1-.5.094-.628.026-.769-.458a37.278,37.278,0,0,0-3.968-9.034A17.232,17.232,0,0,0,177,45.561c-.05-.034-.1-.065-.151-.1a.452.452,0,0,1,.308-.831m12.367,15.043a31.688,31.688,0,0,0-3.464-6.593,28.836,28.836,0,0,0-5.077-5.282.176.176,0,0,0,.049.139,20.6,20.6,0,0,1,2.585,3.82A37.536,37.536,0,0,1,186.7,59.04c.078.258.171.381.476.326a3.256,3.256,0,0,1,1.232,0c.351.072.693.187,1.121.306" transform="translate(-163.757 -41.373)" fill="#5221e6"/>
  </g>
</svg>
