<svg xmlns="http://www.w3.org/2000/svg" width="32" height="31.2" viewBox="0 0 32 31.2">
  <g id="Layer_2_00000039817479287426663580000002022239267393654928_" transform="translate(0 -0.3)">
    <g id="Surfaces_00000013180303803292169050000003155769525423463324_" transform="translate(0 0.3)">
      <g id="Photo_Surface_2_">
        <g id="Outline_no_shadow_00000073715384240732440140000014327426812104272037_">
          <path id="Path_6156" data-name="Path 6156" d="M10.542,8.995a1.554,1.554,0,0,1,.238.885,1.545,1.545,0,0,1-.31,1.03,2.57,2.57,0,0,1-1.97.71H7.97c-.12,0-.25-.01-.39-.02V8.24a2.29,2.29,0,0,1,.41-.01c.19-.01.42-.01.68-.01A2.121,2.121,0,0,1,10.542,8.995Z" transform="translate(2.915 2.789)" fill="#5221e6"/>
          <path id="Path_6157" data-name="Path 6157" d="M26.333.3H5.667A5.662,5.662,0,0,0,0,5.967V25.833A5.662,5.662,0,0,0,5.667,31.5H26.333A5.662,5.662,0,0,0,32,25.833V5.967A5.662,5.662,0,0,0,26.333.3ZM16.48,15.833a4.568,4.568,0,0,1-2.147,1.627,8.641,8.641,0,0,1-3,.453c-.32,0-.533,0-.667-.013s-.32-.013-.573-.013v4.28a.166.166,0,0,1-.147.187H7.36c-.107,0-.16-.053-.16-.173V8.46c0-.093.04-.147.133-.147.227,0,.44,0,.747-.013s.653-.013,1.013-.027.747-.013,1.16-.027.813-.013,1.213-.013a7.84,7.84,0,0,1,2.747.413A4.761,4.761,0,0,1,16,9.74a4.245,4.245,0,0,1,.973,1.52,5.1,5.1,0,0,1,.307,1.733A4.767,4.767,0,0,1,16.48,15.833Zm9.453,5.187a3.341,3.341,0,0,1-1.493,1.187,6.109,6.109,0,0,1-2.413.427,9.185,9.185,0,0,1-1.813-.173,5.378,5.378,0,0,1-1.36-.427.262.262,0,0,1-.147-.253V19.46a.145.145,0,0,1,.053-.12.1.1,0,0,1,.12.013,5.708,5.708,0,0,0,1.653.653,6.207,6.207,0,0,0,1.573.2,2.545,2.545,0,0,0,1.107-.187.619.619,0,0,0,.36-.56.706.706,0,0,0-.32-.533,5.655,5.655,0,0,0-1.307-.627,8.158,8.158,0,0,1-1.893-.96,3.452,3.452,0,0,1-1.013-1.133,2.861,2.861,0,0,1-.307-1.36,3.136,3.136,0,0,1,.453-1.613,3.287,3.287,0,0,1,1.4-1.227,5.17,5.17,0,0,1,2.36-.467,11.5,11.5,0,0,1,1.653.12,4.691,4.691,0,0,1,1.147.307.234.234,0,0,1,.133.12.669.669,0,0,1,.027.16V14.42a.164.164,0,0,1-.067.133.355.355,0,0,1-.24,0,4.719,4.719,0,0,0-1.28-.453,7.029,7.029,0,0,0-1.493-.173,2.685,2.685,0,0,0-.8.093.685.685,0,0,0-.413.267.707.707,0,0,0-.107.36.593.593,0,0,0,.133.347,1.5,1.5,0,0,0,.453.36c.307.16.627.307.947.44a9.657,9.657,0,0,1,2.053.973,3.1,3.1,0,0,1,1.053,1.107,2.878,2.878,0,0,1,.307,1.373A3.1,3.1,0,0,1,25.933,21.02Z" transform="translate(0 -0.3)" fill="#5221e6"/>
        </g>
      </g>
    </g>
  </g>
</svg>
