<svg xmlns="http://www.w3.org/2000/svg" width="32" height="31.2" viewBox="0 0 32 31.2">
  <g id="Layer_2_00000139992070164898275570000017758719175361977789_" transform="translate(0 -0.3)">
    <g id="Surfaces_00000005262748026417272620000000272620920402432403_" transform="translate(0 0.3)">
      <g id="Drawing_Surface_1_">
        <g id="Outline_no_shadow_00000031186969925551911540000009553510160061498536_">
          <path id="Path_6155" data-name="Path 6155" d="M13,10.753h-.027l-1.653,5.56h3.387Zm0,0h-.027l-1.653,5.56h3.387ZM26.333.3H5.667A5.662,5.662,0,0,0,0,5.967V25.833A5.662,5.662,0,0,0,5.667,31.5H26.333A5.662,5.662,0,0,0,32,25.833V5.967A5.662,5.662,0,0,0,26.333.3ZM19.6,22.34H16.813a.2.2,0,0,1-.213-.147L15.507,19.02h-4.96L9.533,22.153a.233.233,0,0,1-.253.187H6.773c-.147,0-.187-.08-.147-.24L10.92,9.74c.04-.133.08-.28.133-.44a4.657,4.657,0,0,0,.08-.867.132.132,0,0,1,.107-.147h3.453c.107,0,.16.04.173.107l4.867,13.733C19.773,22.273,19.733,22.34,19.6,22.34Zm4.533-.2c0,.147-.053.213-.173.213H21.347a.187.187,0,0,1-.2-.213V11.873c0-.133.053-.187.173-.187h2.64c.12,0,.173.067.173.187V22.14Zm-.28-12.04a1.568,1.568,0,0,1-1.213.467,1.65,1.65,0,0,1-1.187-.467A1.732,1.732,0,0,1,21,8.873a1.569,1.569,0,0,1,.48-1.187,1.708,1.708,0,0,1,1.187-.467,1.6,1.6,0,0,1,1.213.467,1.683,1.683,0,0,1,.44,1.187A1.687,1.687,0,0,1,23.853,10.1Zm-10.88.653-1.653,5.56h3.387L13,10.753Z" transform="translate(0 -0.3)" fill="#5221e6"/>
        </g>
      </g>
    </g>
  </g>
</svg>
