<?xml version="1.0" encoding="UTF-8"?><svg id="Layer_1" xmlns="http://www.w3.org/2000/svg" viewBox="0 0 319.45 71.52"><defs><style>.cls-1{fill:#fff;}</style></defs><path class="cls-1" d="m71.05,39.3v2.7c-2.47,2.32-4.58,4.19-6.31,5.61-1.73,1.42-3.46,2.7-5.18,3.83s-3.14,1.94-4.28,2.42c-1.13.48-2.1.72-2.91.72-1.93,0-3.5-.72-4.73-2.15-1.22-1.43-1.84-3.28-1.84-5.55,0-2.6.53-5.18,1.58-7.73,1.05-2.55,2.56-5.19,4.51-7.91,1.95-2.72,4.4-5.77,7.34-9.16,2.19-2.5,3.28-3.91,3.28-4.22,0-.18-.07-.34-.2-.47-.13-.13-.27-.2-.43-.2-.5,0-2.02,1.09-4.57,3.28-2.55,2.19-5.83,5.4-9.82,9.65-4,4.25-8.31,9.3-12.95,15.16-.26.31-1.09,1.37-2.48,3.18-1.39,1.81-2.38,2.99-2.95,3.54-.57.55-1.07.82-1.48.82-.73,0-1.36-.74-1.89-2.21-.53-1.47-.8-3.04-.8-4.71,0-1.02.33-2.11,1-3.28s2.11-3.27,4.34-6.31c2.23-3.03,4.07-5.59,5.53-7.68,1.46-2.08,3.06-4.61,4.8-7.58,1.22-2.06,2.13-3.7,2.71-4.92.59-1.22.88-2.3.88-3.24,0-.81-.23-1.21-.7-1.21-.99,0-2.85,1.32-5.59,3.96-2.73,2.64-6.11,6.57-10.14,11.78-4.02,5.21-8.22,11.24-12.6,18.09-1.43,2.34-2.45,3.92-3.05,4.73-.6.81-1.26,1.21-1.99,1.21-.91,0-1.76-.97-2.56-2.91-.79-1.94-1.19-3.51-1.19-4.71,0-.39.16-.82.47-1.29,3.44-4.58,6.26-8.48,8.48-11.68,2.21-3.2,4.18-6.24,5.9-9.12,1.72-2.88,2.97-5.25,3.75-7.11.78-1.86,1.17-3.33,1.17-4.39s-.51-1.68-1.52-1.68c-.83,0-2.25.53-4.26,1.6-2.01,1.07-4.54,2.53-7.6,4.38-3.06,1.85-5.51,3.26-7.36,4.24-1.85.98-3.23,1.46-4.14,1.46-.86,0-1.29-.48-1.29-1.45,0-.55.18-1.8.55-3.77.37-1.97.74-3.35,1.13-4.16.55-1.04,1.95-2.42,4.2-4.14,2.25-1.72,3.5-2.58,3.73-2.58.21,0,.31.09.31.27,0,.1-.1.26-.31.47-1.07.86-1.86,1.56-2.38,2.11-.52.55-.85,1.15-.98,1.8,4.77-2.86,9.03-5.04,12.79-6.54,3.76-1.5,6.37-2.25,7.83-2.25.73,0,1.42.49,2.07,1.46.65.98,1.2,2.11,1.66,3.4.46,1.29.68,2.12.68,2.48,0,1.33-.34,2.9-1.02,4.71-.68,1.81-1.6,3.91-2.75,6.31-1.16,2.4-2.6,5.39-4.32,8.98,1.35-1.74,2.64-3.36,3.87-4.84,1.22-1.48,2.44-2.93,3.65-4.34s2.44-2.83,3.69-4.26c1.69-1.95,3.59-3.82,5.7-5.61,2.11-1.78,4.08-3.24,5.92-4.38s3.08-1.7,3.73-1.7c.91,0,1.72.5,2.44,1.5.72,1,1.07,2.08,1.07,3.22,0,.76-.5,2.2-1.48,4.34-.99,2.14-2.44,4.87-4.34,8.2-1.9,3.33-4.41,7.63-7.54,12.89,2.97-3.15,6.05-6.39,9.26-9.73,3.2-3.33,5.59-5.77,7.15-7.3,1.56-1.54,2.86-2.71,3.91-3.52,1.43-1.09,2.87-2.27,4.32-3.54,1.45-1.26,2.58-2.26,3.42-2.99.83-.73,1.58-1.29,2.23-1.68.65-.39,1.25-.59,1.8-.59.68,0,1.53.78,2.56,2.34,1.03,1.56,1.54,2.57,1.54,3.01,0,.55-.31,1.2-.92,1.95-.61.76-1.88,2.16-3.81,4.22-3.54,3.8-6.62,7.64-9.22,11.5-2.6,3.87-4.58,7.4-5.92,10.59-1.34,3.19-2.01,5.71-2.01,7.56,0,1.15.21,1.98.64,2.5.43.52,1.1.78,2.01.78.83,0,1.61-.16,2.32-.47.72-.31,1.51-.75,2.38-1.33.87-.57,1.7-1.12,2.48-1.64,1.09-.65,2.17-1.35,3.22-2.09s1.88-1.33,2.46-1.76,1.02-.74,1.31-.92Z"/><path class="cls-1" d="m95.9,39.38v2.62c-1.72,1.56-3.1,2.6-4.14,3.12-1.04.52-2.54.73-4.49.62-3.39,4.01-6.37,6.02-8.95,6.02-1.46,0-2.79-.48-3.98-1.45-1.2-.96-2.16-2.28-2.87-3.95-.72-1.67-1.07-3.53-1.07-5.59,0-1.67.55-3.52,1.66-5.55,1.11-2.03,2.54-3.93,4.3-5.68s3.64-3.18,5.64-4.26c2-1.08,3.87-1.62,5.59-1.62,1.22,0,2.19.19,2.89.57.7.38,1.05.91,1.05,1.58,0,.52-.3,1.12-.9,1.8.99.21,1.67.55,2.03,1.04.36.48.55,1.36.55,2.64s-.29,2.83-.88,4.73c-.59,1.9-1.39,3.69-2.4,5.35l.7.7h.59c.44,0,.88-.11,1.31-.33.43-.22.81-.46,1.15-.7.34-.25,1.08-.8,2.23-1.66Zm-8.05-10.27c-2.16,1.3-4.01,2.48-5.55,3.54-1.54,1.05-2.84,2.12-3.91,3.2-1.07,1.08-1.78,2.17-2.15,3.26-.65,2.92-.98,4.49-.98,4.73,0,1.72,1.2,2.58,3.59,2.58,1.12,0,2.99-.96,5.62-2.89-.44-1.22-.66-2.4-.66-3.52,0-1.64.34-3.31,1.02-5.02.68-1.71,1.68-3.67,3.01-5.88Z"/><path class="cls-1" d="m95.35,42.89v-2.89c1.43-1.51,2.9-3.62,4.41-6.33-1.46-.21-2.19-.79-2.19-1.76,0-.81.49-1.85,1.46-3.12.98-1.28,2.12-2.42,3.44-3.44,1.31-1.02,2.35-1.52,3.11-1.52.86,0,1.29.35,1.29,1.05,0,.29-.08.47-.23.55-.21.13-.31.35-.31.66,0,.26.21.39.62.39,1.3,0,2.94-.27,4.9-.8,1.97-.53,3.31-.8,4.04-.8.6,0,1,.56,1.21,1.68.55,2.97.82,4.65.82,5.04,0,.37-.16.71-.49,1.04s-1.24.97-2.73,1.93c-1.5.96-2.88,1.89-4.16,2.79-1.28.9-2.93,2.16-4.96,3.77,1.41.65,2.43,1.38,3.07,2.19.64.81,1.19,2.04,1.66,3.71l9.77-7.66v2.62l-9.84,7.93c-.26,2.5-1.13,5.04-2.6,7.62-1.47,2.58-3.18,4.9-5.14,6.95-1.95,2.06-3.89,3.74-5.82,5.06-1.93,1.31-3.33,1.97-4.22,1.97s-1.46-.28-1.8-.84c-.34-.56-.51-1.37-.51-2.44,0-1.54.33-3,1-4.38.66-1.38,1.63-2.75,2.89-4.12s2.79-2.76,4.57-4.18c1.78-1.42,4.16-3.14,7.13-5.18-.29-1.85-.77-3-1.45-3.46-.68-.46-1.71-.91-3.11-1.37-1.39-.46-2.09-1.14-2.09-2.05,0-1.02,4.88-4.91,14.65-11.68-1.56.31-3.4.66-5.51,1.04-2.11.38-4.12.64-6.02.8-1.33,2.11-2.59,3.96-3.79,5.55-1.2,1.59-2.23,2.81-3.09,3.67Zm10,11.17c-1.88,1.3-3.69,2.77-5.43,4.39-1.75,1.63-3.25,3.17-4.51,4.63-1.26,1.46-1.89,2.34-1.89,2.66,0,.6.26.9.78.9.94,0,2.15-.52,3.63-1.56,1.48-1.04,2.93-2.53,4.34-4.47,1.41-1.94,2.43-4.12,3.09-6.54Z"/><path class="cls-1" d="m124.53,32.46c3.96-3.59,7.8-6.26,11.52-8.01,3.72-1.74,6.6-2.62,8.63-2.62.55,0,1.05.23,1.52.68.47.46.84.98,1.11,1.58.27.6.41,1.04.41,1.33,0,.47-.18.81-.55,1.04-.37.22-1,.49-1.91.8.18.42.42.95.7,1.6.29.65.51,1.18.66,1.58.16.4.23.76.23,1.07,0,.62-.63,1.79-1.89,3.5-1.26,1.71-2.15,2.96-2.66,3.77-.51.81-.76,1.8-.76,2.97,0,1.93.88,2.89,2.66,2.89s4.67-1.71,8.55-5.12v2.38c-6.59,7.32-11.3,10.98-14.14,10.98-1.02,0-1.74-.33-2.17-1s-.64-1.65-.64-2.95c0-2.06.74-5.04,2.23-8.95-3.8,4.22-6.63,7.22-8.48,9-1.85,1.78-3.37,2.68-4.57,2.68-.57,0-1.29-.49-2.15-1.48-.86-.99-1.62-2.27-2.29-3.85-.66-1.58-1-3.21-1-4.9,0-1.22.12-2.25.35-3.07s.69-1.66,1.37-2.52c.68-.86,1.76-1.99,3.24-3.4Zm18.71-4.3c-6.77,3.1-11.6,5.73-14.47,7.89-2.88,2.16-4.32,4.39-4.32,6.68,0,.83.14,1.52.43,2.05.29.53.68.8,1.17.8.29,0,.79-.18,1.52-.55,2.73-1.61,5.23-3.72,7.5-6.31,2.27-2.59,4.99-6.11,8.16-10.57Z"/><path class="cls-1" d="m170.27,44.8c3.59-3.18,6.68-5.94,9.26-8.3,2.58-2.36,4.6-4.21,6.07-5.57,1.47-1.35,2.77-2.5,3.89-3.44,1.12-.94,1.84-1.41,2.15-1.41.6-.03,1.17.59,1.72,1.86.55,1.26.82,2.27.82,3.03,0,.5-.83,1.66-2.48,3.5-1.65,1.84-2.89,3.3-3.71,4.39s-1.23,2.24-1.23,3.44c0,.7.23,1.27.7,1.7s1.03.64,1.68.64c.75,0,1.66-.39,2.71-1.17s2.71-2.17,4.98-4.18v2.77c-2.27,2.14-4.32,3.98-6.17,5.53-1.85,1.55-3.46,2.71-4.82,3.48s-2.51,1.15-3.42,1.15c-.81,0-1.48-.31-2.03-.92s-.82-1.37-.82-2.29.16-1.78.47-2.7c.31-.91.79-1.99,1.45-3.24.65-1.25,1.51-2.75,2.58-4.51,1.07-1.76,2.04-3.37,2.93-4.82-2.66,2.16-5.01,4.25-7.07,6.25-2.06,2.01-3.74,3.76-5.04,5.25-1.3,1.5-2.33,2.68-3.09,3.54-1.46,1.62-2.81,2.42-4.06,2.42-1.35,0-2.03-.96-2.03-2.89,0-.78.51-2.18,1.52-4.2,1.02-2.02,2.46-4.59,4.34-7.71.16-.21.23-.53.23-.98,0-.52-.26-.78-.78-.78-.57,0-1.4.54-2.48,1.62s-3.17,3.34-6.27,6.78c-.86.96-1.83,2.22-2.91,3.77-1.08,1.55-1.86,2.58-2.32,3.11-.47.52-.94.78-1.41.78-.94,0-1.81-.83-2.62-2.5-.81-1.67-1.21-3.61-1.21-5.82,0-1.61.27-3.01.8-4.18.53-1.17,1.36-2.63,2.48-4.38,1.74-2.53,3.17-4.33,4.28-5.41,1.11-1.08,2.27-1.62,3.5-1.62.75,0,1.39.15,1.91.45.52.3.78.71.78,1.23,0,.55-.48,1.45-1.43,2.7-.95,1.25-2.16,2.54-3.61,3.87-.78.76-1.52,1.69-2.23,2.79-.7,1.11-1.05,1.91-1.05,2.4,0,.7.27,1.05.82,1.05.44,0,1.56-.91,3.36-2.73,1.8-1.82,3.77-3.81,5.92-5.96s4.14-3.93,5.98-5.35c1.84-1.42,3.39-2.13,4.67-2.13.78,0,1.43.29,1.93.88s.76,1.31.76,2.17c0,.57-.39,1.61-1.17,3.11-.78,1.5-1.92,3.35-3.42,5.55-1.5,2.2-3.43,4.86-5.8,7.99Z"/><path class="cls-1" d="m202.81,40.86v.98c0,1.54.38,2.73,1.13,3.59.75.86,1.74,1.29,2.97,1.29s2.6-.3,3.96-.9c1.37-.6,2.73-1.39,4.08-2.38,1.35-.99,3.01-2.32,4.96-3.98v2.38c-2.94,3.54-5.7,6.26-8.28,8.14s-5.2,2.83-7.85,2.83c-2.32,0-4.15-.9-5.51-2.7-1.35-1.8-2.03-4.26-2.03-7.38,0-2.73.64-5.21,1.91-7.44,1.28-2.23,3.36-4.58,6.25-7.05,1.98-1.69,3.95-2.97,5.9-3.83s3.7-1.29,5.23-1.29c1.22,0,2.19.28,2.91.84.72.56,1.07,1.4,1.07,2.52,0,1.64-.61,3.28-1.84,4.9-1.22,1.63-3.09,3.24-5.61,4.84-2.51,1.6-5.61,3.14-9.28,4.63Zm.39-2.54c2.34-.91,4.35-2.04,6.02-3.4,1.67-1.35,2.9-2.65,3.69-3.89.79-1.24,1.19-2.14,1.19-2.71s-.27-.9-.82-.9c-.47,0-1.23.3-2.29.9-1.05.6-2.12,1.38-3.2,2.34-1.08.96-2.05,2.1-2.91,3.4-.86,1.3-1.42,2.72-1.68,4.26Z"/><path class="cls-1" d="m238.59,39.02v2.89c-5.44,7.21-9.87,10.82-13.28,10.82-1.85,0-3.3-1.01-4.36-3.03-1.05-2.02-1.58-4.67-1.58-7.95,0-2.66.62-5.81,1.88-9.47,1.25-3.66,2.92-7.37,5.02-11.13,2.1-3.76,4.27-7.04,6.52-9.84,2.25-2.8,4.34-4.76,6.27-5.88.78-.47,1.39-.7,1.84-.7.55,0,.91.24,1.09.72.18.48.27,1.31.27,2.48,0,3.62-1.47,8.07-4.41,13.34-2.94,5.27-7.04,10.66-12.3,16.15-.26,1.35-.39,2.4-.39,3.12,0,1.67.36,3.02,1.07,4.06.72,1.04,1.71,1.56,2.99,1.56.65,0,1.35-.25,2.11-.76.75-.51,1.55-1.14,2.38-1.89.83-.75,2.46-2.25,4.88-4.49Zm-11.68-7.03c1.35-1.33,2.66-2.84,3.93-4.53,1.26-1.69,2.45-3.5,3.57-5.43,1.12-1.93,2-3.66,2.64-5.2.64-1.54.96-2.7.96-3.48,0-.6-.21-.9-.62-.9-.16,0-.46.14-.9.43-1.59,1.3-3.37,3.85-5.35,7.64-1.98,3.79-3.39,7.61-4.22,11.46Z"/><path class="cls-1" d="m243.79,51.91c-.44,0-.82-.17-1.13-.51-.31-.34-.47-.81-.47-1.41,0-.47.28-1.31.84-2.52.56-1.21,1.26-2.29,2.11-3.24.85-.95,1.72-1.43,2.64-1.43,1.12,0,1.68.66,1.68,1.99,0,.73-.3,1.67-.9,2.83-.6,1.16-1.34,2.16-2.23,3.01-.89.85-1.73,1.27-2.54,1.27Z"/><path class="cls-1" d="m305.31,40.47c-.65-1.2-1.63-2.28-2.93-3.24-1.3-.96-2.77-1.74-4.39-2.32s-3.33-1.02-5.1-1.31c-5.26-.78-10.17-2.49-14.73-5.12-.39-.21-.81-.65-1.25-1.33-.44-.68-.66-1.33-.66-1.95,0-2.29.38-4.59,1.15-6.89.77-2.3,1.75-4.11,2.95-5.41,1.93-2.16,5.4-4.05,10.41-5.66,5.01-1.61,10.66-2.42,16.93-2.42,3.75,0,6.65.29,8.69.86,2.04.57,3.07,1.46,3.07,2.66,0,1.95-.27,3.46-.8,4.53-.53,1.07-1.11,1.78-1.72,2.13s-1.69.83-3.22,1.43c-1.64.57-3.07,1.17-4.28,1.8s-2.25,1.22-3.11,1.8c-.86.57-1.39.86-1.6.86-.26,0-.39-.1-.39-.31,0-.44.46-1.11,1.39-2.01s2.06-1.69,3.42-2.36c1.43-.75,2.15-1.24,2.15-1.45,0-.34-.79-.51-2.38-.51-4.82,0-9.27.43-13.36,1.29s-7.31,1.99-9.67,3.4c-2.36,1.41-3.54,2.84-3.54,4.3,0,.91.49,1.56,1.46,1.93.98.38,3.13,1.01,6.46,1.89,3.33.89,6.31,1.9,8.95,3.05,3.78,1.62,6.58,3.29,8.4,5.04,1.82,1.75,2.73,3.7,2.73,5.86,0,1.48-.36,2.98-1.07,4.47-.72,1.5-1.76,2.87-3.14,4.12s-2.97,2.28-4.77,3.09c-1.54.65-3.47,1.26-5.8,1.84-2.33.57-4.86,1.02-7.58,1.35-2.72.33-5.32.49-7.79.49-4.56,0-8.22-.43-11-1.29s-4.16-2.16-4.16-3.91c0-.78.47-2,1.41-3.65.94-1.65,2.04-2.77,3.32-3.34,1.12-.44,2.2-.7,3.24-.76,1.04-.06,1.56.06,1.56.37,0,.08-.04.16-.12.23s-.17.14-.27.2c-.1.05-.21.1-.31.16-.52.21-.94.37-1.27.49-.33.12-.59.23-.78.35s-.29.28-.29.49c0,.55,2.7.82,8.09.82,4.69,0,8.53-.17,11.52-.51,2.99-.34,5.64-.95,7.93-1.84,2.29-.88,4.38-2.11,6.25-3.67Z"/></svg>