<svg xmlns="http://www.w3.org/2000/svg" width="32" height="31.2" viewBox="0 0 32 31.2">
  <g id="xd" transform="translate(0 -0.3)">
    <g id="Layer_2_8_" transform="translate(0 0.3)">
      <g id="Surfaces_9_">
        <g id="UI_UX_Surface">
          <g id="Outline_no_shadow_9_">
            <path id="Path_6158" data-name="Path 6158" d="M26.333.3H5.667A5.667,5.667,0,0,0,0,5.967V25.833A5.667,5.667,0,0,0,5.667,31.5H26.333A5.667,5.667,0,0,0,32,25.833V5.967A5.667,5.667,0,0,0,26.333.3ZM17.123,22.255c-.015.051-.064.019-.149.033H13.924c-.215,0-.364-.008-.451-.151q-.43-.838-.859-1.664T11.7,18.788q-.484-.858-.956-1.739h-.02q-.43.858-.891,1.717t-.912,1.707q-.452.848-.924,1.685c-.057.128-.159.141-.3.141H4.759c-.057,0-.089.023-.1-.035a.218.218,0,0,1,.032-.149l4.143-6.805L4.8,8.484c-.041-.057-.049-.1-.021-.14a.154.154,0,0,1,.129-.053H7.935a.435.435,0,0,1,.193.032.407.407,0,0,1,.129.119q.386.858.859,1.717t.955,1.7q.482.838.891,1.7h.021q.43-.88.871-1.717t.9-1.685q.462-.848.891-1.685a.337.337,0,0,1,.085-.14.307.307,0,0,1,.172-.032h2.812a.125.125,0,0,1,.149.089.127.127,0,0,1-.041.125l-3.992,6.589,4.272,7A.226.226,0,0,1,17.123,22.255Zm10.089-.525a10.668,10.668,0,0,1-2.168.644,11.739,11.739,0,0,1-2.06.193,6.66,6.66,0,0,1-2.867-.6,4.552,4.552,0,0,1-2.007-1.815,5.8,5.8,0,0,1-.729-3.037,5.615,5.615,0,0,1,.729-2.812,5.354,5.354,0,0,1,2.125-2.06,6.864,6.864,0,0,1,3.371-.772c.071,0,.164,0,.279.011l.408.032V7.281c0-.1.043-.151.129-.151h2.705a.115.115,0,0,1,.129.1.129.129,0,0,1,0,.032V19.947c0,.244.011.508.032.795s.04.544.053.772A.228.228,0,0,1,27.212,21.729ZM23.5,13.957A3.318,3.318,0,0,0,22,14.3a2.764,2.764,0,0,0-1.567,2.684,3.823,3.823,0,0,0,.225,1.373,2.608,2.608,0,0,0,.6.944,2.294,2.294,0,0,0,.9.537,3.539,3.539,0,0,0,1.105.172c.2,0,.387-.008.559-.021a2.265,2.265,0,0,0,.472-.087v-5.86a2.273,2.273,0,0,0-.355-.064C23.792,13.965,23.645,13.957,23.5,13.957Z" transform="translate(0 -0.3)" fill="#5221e6"/>
          </g>
        </g>
      </g>
    </g>
  </g>
</svg>
